<mxfile host="app.diagrams.net" modified="2022-08-17T00:43:22.469Z" agent="5.0 (Windows NT 10.0; Win64; x64) AppleWebKit/537.36 (KHTML, like Gecko) Chrome/104.0.0.0 Safari/537.36" etag="wSlxusgfPwNDxdoH514K" version="20.2.4" type="github">
  <diagram id="C5RBs43oDa-KdzZeNtuy" name="Page-1">
    <mxGraphModel dx="868" dy="450" grid="1" gridSize="10" guides="1" tooltips="1" connect="1" arrows="1" fold="1" page="1" pageScale="1" pageWidth="827" pageHeight="1169" math="0" shadow="0">
      <root>
        <mxCell id="WIyWlLk6GJQsqaUBKTNV-0" />
        <mxCell id="WIyWlLk6GJQsqaUBKTNV-1" parent="WIyWlLk6GJQsqaUBKTNV-0" />
        <mxCell id="8LNoN5YlBU2QQjWAoNTl-12" style="edgeStyle=none;rounded=0;orthogonalLoop=1;jettySize=auto;html=1;entryX=0.469;entryY=0.233;entryDx=0;entryDy=0;entryPerimeter=0;" edge="1" parent="WIyWlLk6GJQsqaUBKTNV-1" source="8LNoN5YlBU2QQjWAoNTl-0" target="8LNoN5YlBU2QQjWAoNTl-1">
          <mxGeometry relative="1" as="geometry" />
        </mxCell>
        <mxCell id="8LNoN5YlBU2QQjWAoNTl-0" value="Inicio" style="ellipse;whiteSpace=wrap;html=1;" vertex="1" parent="WIyWlLk6GJQsqaUBKTNV-1">
          <mxGeometry x="320" y="80" width="120" height="80" as="geometry" />
        </mxCell>
        <mxCell id="8LNoN5YlBU2QQjWAoNTl-13" style="edgeStyle=none;rounded=0;orthogonalLoop=1;jettySize=auto;html=1;exitX=0.5;exitY=1;exitDx=0;exitDy=0;" edge="1" parent="WIyWlLk6GJQsqaUBKTNV-1" source="8LNoN5YlBU2QQjWAoNTl-1" target="8LNoN5YlBU2QQjWAoNTl-2">
          <mxGeometry relative="1" as="geometry" />
        </mxCell>
        <mxCell id="8LNoN5YlBU2QQjWAoNTl-1" value="Ingresar numero1" style="html=1;strokeWidth=2;shape=manualInput;whiteSpace=wrap;rounded=1;size=26;arcSize=11;" vertex="1" parent="WIyWlLk6GJQsqaUBKTNV-1">
          <mxGeometry x="320" y="190" width="130" height="60" as="geometry" />
        </mxCell>
        <mxCell id="8LNoN5YlBU2QQjWAoNTl-14" style="edgeStyle=none;rounded=0;orthogonalLoop=1;jettySize=auto;html=1;exitX=0.5;exitY=1;exitDx=0;exitDy=0;" edge="1" parent="WIyWlLk6GJQsqaUBKTNV-1" source="8LNoN5YlBU2QQjWAoNTl-2" target="8LNoN5YlBU2QQjWAoNTl-3">
          <mxGeometry relative="1" as="geometry" />
        </mxCell>
        <mxCell id="8LNoN5YlBU2QQjWAoNTl-2" value="&lt;br&gt;Ingresar&lt;br&gt;numero2" style="html=1;strokeWidth=2;shape=manualInput;whiteSpace=wrap;rounded=1;size=26;arcSize=11;" vertex="1" parent="WIyWlLk6GJQsqaUBKTNV-1">
          <mxGeometry x="320" y="270" width="130" height="60" as="geometry" />
        </mxCell>
        <mxCell id="8LNoN5YlBU2QQjWAoNTl-15" style="edgeStyle=none;rounded=0;orthogonalLoop=1;jettySize=auto;html=1;exitX=0.5;exitY=1;exitDx=0;exitDy=0;entryX=0.5;entryY=0;entryDx=0;entryDy=0;" edge="1" parent="WIyWlLk6GJQsqaUBKTNV-1" source="8LNoN5YlBU2QQjWAoNTl-3" target="8LNoN5YlBU2QQjWAoNTl-4">
          <mxGeometry relative="1" as="geometry" />
        </mxCell>
        <mxCell id="8LNoN5YlBU2QQjWAoNTl-3" value="Sumar&amp;nbsp; = numero1 + numero 2" style="rounded=0;whiteSpace=wrap;html=1;" vertex="1" parent="WIyWlLk6GJQsqaUBKTNV-1">
          <mxGeometry x="325" y="360" width="120" height="60" as="geometry" />
        </mxCell>
        <mxCell id="8LNoN5YlBU2QQjWAoNTl-16" style="edgeStyle=none;rounded=0;orthogonalLoop=1;jettySize=auto;html=1;exitX=0.5;exitY=1;exitDx=0;exitDy=0;" edge="1" parent="WIyWlLk6GJQsqaUBKTNV-1" source="8LNoN5YlBU2QQjWAoNTl-4" target="8LNoN5YlBU2QQjWAoNTl-5">
          <mxGeometry relative="1" as="geometry" />
        </mxCell>
        <mxCell id="8LNoN5YlBU2QQjWAoNTl-4" value="restar = numero1 - numero2" style="rounded=0;whiteSpace=wrap;html=1;" vertex="1" parent="WIyWlLk6GJQsqaUBKTNV-1">
          <mxGeometry x="325" y="440" width="120" height="60" as="geometry" />
        </mxCell>
        <mxCell id="8LNoN5YlBU2QQjWAoNTl-17" style="edgeStyle=none;rounded=0;orthogonalLoop=1;jettySize=auto;html=1;exitX=0.5;exitY=1;exitDx=0;exitDy=0;entryX=0.5;entryY=0;entryDx=0;entryDy=0;" edge="1" parent="WIyWlLk6GJQsqaUBKTNV-1" source="8LNoN5YlBU2QQjWAoNTl-5" target="8LNoN5YlBU2QQjWAoNTl-6">
          <mxGeometry relative="1" as="geometry" />
        </mxCell>
        <mxCell id="8LNoN5YlBU2QQjWAoNTl-5" value="multiplicar = numero1 * numero2" style="rounded=0;whiteSpace=wrap;html=1;" vertex="1" parent="WIyWlLk6GJQsqaUBKTNV-1">
          <mxGeometry x="330" y="525" width="120" height="60" as="geometry" />
        </mxCell>
        <mxCell id="8LNoN5YlBU2QQjWAoNTl-18" style="edgeStyle=none;rounded=0;orthogonalLoop=1;jettySize=auto;html=1;exitX=0.5;exitY=1;exitDx=0;exitDy=0;entryX=0.5;entryY=0;entryDx=0;entryDy=0;entryPerimeter=0;" edge="1" parent="WIyWlLk6GJQsqaUBKTNV-1" source="8LNoN5YlBU2QQjWAoNTl-6" target="8LNoN5YlBU2QQjWAoNTl-7">
          <mxGeometry relative="1" as="geometry" />
        </mxCell>
        <mxCell id="8LNoN5YlBU2QQjWAoNTl-6" value="Dividir = numero1 / n umero2" style="rounded=0;whiteSpace=wrap;html=1;" vertex="1" parent="WIyWlLk6GJQsqaUBKTNV-1">
          <mxGeometry x="330" y="610" width="120" height="60" as="geometry" />
        </mxCell>
        <mxCell id="8LNoN5YlBU2QQjWAoNTl-20" style="edgeStyle=none;rounded=0;orthogonalLoop=1;jettySize=auto;html=1;exitX=0.5;exitY=1;exitDx=0;exitDy=0;exitPerimeter=0;" edge="1" parent="WIyWlLk6GJQsqaUBKTNV-1" source="8LNoN5YlBU2QQjWAoNTl-7" target="8LNoN5YlBU2QQjWAoNTl-19">
          <mxGeometry relative="1" as="geometry" />
        </mxCell>
        <mxCell id="8LNoN5YlBU2QQjWAoNTl-7" value="Sumar&lt;br&gt;restar&lt;br&gt;multiplicar&lt;br&gt;Dividir" style="strokeWidth=2;html=1;shape=mxgraph.flowchart.display;whiteSpace=wrap;" vertex="1" parent="WIyWlLk6GJQsqaUBKTNV-1">
          <mxGeometry x="345" y="700" width="100" height="60" as="geometry" />
        </mxCell>
        <mxCell id="8LNoN5YlBU2QQjWAoNTl-19" value="fin" style="ellipse;whiteSpace=wrap;html=1;" vertex="1" parent="WIyWlLk6GJQsqaUBKTNV-1">
          <mxGeometry x="335" y="790" width="120" height="80" as="geometry" />
        </mxCell>
      </root>
    </mxGraphModel>
  </diagram>
</mxfile>
